<svg width="24" height="24" viewBox="0 0 24 24" fill="none" xmlns="http://www.w3.org/2000/svg">
<g clip-path="url(#clip0)">
<path d="M0.460676 11.8115L2.96101 10.3962C3.05536 10.349 3.14971 10.349 3.19689 10.3962L6.68792 11.8587C6.78227 11.9059 6.87662 12.0002 6.87662 12.1417V14.6421C6.87662 14.7836 6.73509 14.9251 6.59357 14.9251C6.54639 14.9251 6.49921 14.9251 6.49921 14.9251L0.507852 12.3304C0.366324 12.2833 0.319148 12.0946 0.366324 11.953C0.366324 11.9059 0.4135 11.8587 0.460676 11.8115Z" fill="white"/>
<path d="M0.460457 6.62213L7.63123 2.61216C7.72558 2.56499 7.81993 2.56499 7.86711 2.61216L13.2924 4.82944C13.4339 4.87662 13.4811 5.06532 13.4339 5.20685C13.4339 5.25402 13.3867 5.25402 13.3867 5.3012L6.82923 9.68858C6.73488 9.73575 6.64053 9.73575 6.54618 9.68858L0.507633 7.14107C0.366105 7.09389 0.271752 6.90519 0.366105 6.76366C0.366105 6.71648 0.413281 6.66931 0.460457 6.62213Z" fill="#A6D84E"/>
<path d="M6.40454 17.4255V9.4056L13.2922 4.78235L17.2079 6.38633L10.2258 11.0568V19.0767L6.40454 17.4255Z" fill="white"/>
<path d="M0.460676 14.4062L2.96101 12.9909C3.05536 12.9438 3.14971 12.9438 3.19689 12.9909L6.68792 14.4534C6.78227 14.5006 6.87662 14.5949 6.87662 14.7365V17.2368C6.87662 17.3783 6.73509 17.5198 6.59357 17.5198C6.54639 17.5198 6.49921 17.5198 6.49921 17.5198L0.507852 14.9252C0.366324 14.878 0.319148 14.6893 0.366324 14.5478C0.366324 14.5006 0.4135 14.4534 0.460676 14.4062Z" fill="#A6D84E"/>
<path d="M0.460457 9.2169L2.96079 7.80162C3.05514 7.75444 3.14949 7.75444 3.19667 7.80162L6.6877 9.26408C6.78205 9.31125 6.8764 9.40561 6.8764 9.54714V12.0475C6.8764 12.189 6.73487 12.3305 6.59335 12.3305C6.54617 12.3305 6.49899 12.3305 6.49899 12.3305L0.507633 9.73584C0.366105 9.68866 0.271752 9.49996 0.366105 9.35843C0.366105 9.31125 0.413281 9.26408 0.460457 9.2169Z" fill="white"/>
<path d="M9.75439 18.6521V16.1989C9.75439 16.0574 9.89592 15.9159 10.0375 15.9159C10.0846 15.9159 10.1318 15.9159 10.1318 15.9159L15.9345 18.369C16.0288 18.4162 16.1232 18.4162 16.1703 18.369L20.6521 15.7272C20.7464 15.68 20.8408 15.68 20.888 15.7272L23.3883 16.7179C23.5298 16.8122 23.577 16.9537 23.4826 17.0953C23.4826 17.1424 23.4355 17.1424 23.4355 17.1896L16.2175 21.4355C16.1232 21.4827 16.0288 21.4827 15.9816 21.4355L9.89592 18.888C9.84875 18.888 9.75439 18.7936 9.75439 18.6521Z" fill="#A6D84E"/>
<path d="M9.75439 13.4626V11.0095C9.75439 10.8679 9.89592 10.7264 10.0375 10.7264C10.0846 10.7264 10.1318 10.7264 10.1318 10.7264L15.9345 13.1796C16.0288 13.2267 16.1232 13.2267 16.1703 13.1796L20.6521 10.5377C20.7464 10.4905 20.8408 10.4905 20.888 10.5377L23.3883 11.5284C23.5298 11.6228 23.577 11.7643 23.4826 11.9058C23.4826 11.953 23.4355 11.953 23.4355 12.0002L16.2175 16.246C16.1232 16.2932 16.0288 16.2932 15.9816 16.246L9.89592 13.6985C9.84875 13.6985 9.75439 13.6042 9.75439 13.4626Z" fill="white"/>
<path d="M9.94353 10.6793L16.5482 6.29193C16.6425 6.24475 16.7369 6.24475 16.8312 6.24475L23.4831 8.98096C23.6246 9.02814 23.7189 9.21684 23.6246 9.35837C23.6246 9.40554 23.5774 9.45272 23.5302 9.4999L16.3123 13.7457C16.2179 13.7929 16.1236 13.7929 16.0764 13.7457L10.0379 11.1982C9.89635 11.1511 9.84918 10.9624 9.89635 10.8208C9.89635 10.7265 9.89635 10.7265 9.94353 10.6793Z" fill="#A6D84E"/>
<path d="M9.75439 16.0574V13.5571C9.75439 13.4155 9.89592 13.274 10.0375 13.274C10.0846 13.274 10.1318 13.274 10.1318 13.274L15.9345 15.7272C16.0288 15.7744 16.1232 15.7744 16.1703 15.7272L20.6521 13.0853C20.7464 13.0381 20.8408 13.0381 20.8879 13.0853L23.3883 14.1232C23.5298 14.1704 23.6242 14.3591 23.5298 14.5006C23.5298 14.5478 23.4826 14.5949 23.4355 14.6421L16.2175 18.888C16.1232 18.9352 16.0288 18.9352 15.9816 18.888L9.89592 16.2933C9.84875 16.2933 9.75439 16.1989 9.75439 16.0574Z" fill="white"/>
<path d="M23.907 9.16967C23.907 8.98097 23.7655 8.83944 23.6239 8.74509L16.8778 5.9617L13.5283 4.54642C13.4811 4.54642 13.4339 4.49924 13.3396 4.49924L7.91432 2.28196C7.77279 2.23479 7.63126 2.23479 7.48973 2.32914L0.271792 6.48063C0.0359119 6.57499 -0.0584402 6.85804 0.083088 7.09392C0.083088 7.18828 0.17744 7.28263 0.318968 7.3298L2.06448 8.03744L0.271792 9.02814C0.0359119 9.16967 -0.0112641 9.45273 0.083088 9.68861C0.130264 9.78296 0.224616 9.83014 0.318968 9.87731L2.06448 10.6321L0.271792 11.6228C0.0359119 11.7172 -0.0584402 12.0002 0.0359119 12.2361C0.083088 12.3776 0.17744 12.472 0.318968 12.5192L2.06448 13.2268L0.271792 14.2175C0.0359119 14.359 -0.0112641 14.6421 0.083088 14.878C0.130264 14.9723 0.224616 15.0195 0.318968 15.0667L6.40468 17.6614L6.45186 17.7085L9.80136 19.1238L15.9342 21.7185C16.0758 21.7657 16.2173 21.7657 16.3588 21.6713L23.6711 17.3783C23.907 17.2368 23.9542 16.9537 23.8598 16.7178C23.8127 16.6235 23.7183 16.5763 23.6239 16.5291L21.9256 15.8215L23.7183 14.7836C23.9542 14.6421 24.0014 14.359 23.907 14.1232C23.8598 14.0288 23.7655 13.9816 23.6711 13.9345L21.9728 13.2268L23.7655 12.1889C24.0014 12.0474 24.0485 11.7644 23.9542 11.5285C23.907 11.4341 23.8127 11.3869 23.7183 11.3398L22.02 10.6321L23.8127 9.59425C23.8598 9.54708 23.9542 9.35837 23.907 9.16967ZM6.1688 16.5763L1.54555 14.5949L3.14953 13.6986L6.1688 14.9723V16.5763ZM6.1688 13.9816L1.54555 12.0002L3.14953 11.1039L6.1688 12.3776V13.9816ZM6.1688 11.3869L1.54555 9.40555L3.14953 8.50921L6.1688 9.78296V11.3869ZM1.54555 6.81087L7.77279 3.31984L12.3017 5.1597L6.59339 8.98097L1.54555 6.81087ZM9.75418 10.5378C9.61265 10.6321 9.56548 10.7737 9.56548 10.9152V17.9916L7.1595 16.9537V9.78296L13.3867 5.58429L15.6984 6.52781L9.75418 10.5378ZM22.3974 17.0953L16.123 20.775L10.509 18.369V16.8122L15.9342 19.1238C16.0758 19.171 16.2173 19.171 16.3588 19.0766L20.8877 16.4348L22.3974 17.0953ZM22.3974 14.5006L16.123 18.1803L10.509 15.7743V14.2175L15.9814 16.5291C16.123 16.5763 16.2645 16.5763 16.406 16.482L20.9349 13.8401L22.3974 14.5006ZM22.3974 11.9059L16.123 15.5856L10.509 13.1796V11.6228L15.9342 13.9345C15.9814 13.9816 16.0758 13.9816 16.123 13.9816C16.2173 13.9816 16.3117 13.9816 16.3588 13.9345L20.8877 11.2926L22.3974 11.9059ZM16.123 12.9909L11.0279 10.8208L16.7834 6.99957L22.4445 9.3112L16.123 12.9909Z" fill="#1B230D"/>
</g>
<defs>
<clipPath id="clip0">
<rect width="24" height="24" fill="white" transform="translate(0 0.000244141)"/>
</clipPath>
</defs>
</svg>
